<?xml version="1.0" encoding="UTF-8" standalone="no"?>
<svg
   xmlns:dc="http://purl.org/dc/elements/1.1/"
   xmlns:cc="http://creativecommons.org/ns#"
   xmlns:rdf="http://www.w3.org/1999/02/22-rdf-syntax-ns#"
   xmlns:svg="http://www.w3.org/2000/svg"
   xmlns="http://www.w3.org/2000/svg"
   xmlns:sodipodi="http://sodipodi.sourceforge.net/DTD/sodipodi-0.dtd"
   xmlns:inkscape="http://www.inkscape.org/namespaces/inkscape"
   version="1.1"
   id="Capa_1"
   x="0px"
   y="0px"
   viewBox="0 0 395 395"
   style="enable-background:new 0 0 395 395;"
   xml:space="preserve"
   sodipodi:docname="75219.svg"
   inkscape:version="1.0 (6e3e5246a0, 2020-05-07)"><metadata
   id="metadata55"><rdf:RDF><cc:Work
       rdf:about=""><dc:format>image/svg+xml</dc:format><dc:type
         rdf:resource="http://purl.org/dc/dcmitype/StillImage" /></cc:Work></rdf:RDF></metadata><defs
   id="defs53" /><sodipodi:namedview
   inkscape:document-rotation="0"
   pagecolor="#ffffff"
   bordercolor="#666666"
   borderopacity="1"
   objecttolerance="10"
   gridtolerance="10"
   guidetolerance="10"
   inkscape:pageopacity="0"
   inkscape:pageshadow="2"
   inkscape:window-width="1853"
   inkscape:window-height="1025"
   id="namedview51"
   showgrid="false"
   inkscape:zoom="2.2227848"
   inkscape:cx="197.5"
   inkscape:cy="197.5"
   inkscape:window-x="67"
   inkscape:window-y="27"
   inkscape:window-maximized="1"
   inkscape:current-layer="g18" />
<g
   id="g18">
	
	<polygon
   style="fill:#461005;fill-opacity:1"
   points="147.793,114 147.793,281 256.506,281 195.041,114  "
   id="polygon4" />
	<rect
   style="fill:#461005;fill-opacity:1"
   x="30.705"
   y="263.159"
   width="99.704"
   height="16.638"
   id="rect6" />
	<rect
   style="fill:#461005;fill-opacity:1"
   x="30.705"
   y="216.612"
   width="99.704"
   height="16.637"
   id="rect8" />
	<rect
   style="fill:#461005;fill-opacity:1"
   x="30.705"
   y="170.064"
   width="99.704"
   height="16.638"
   id="rect10" />
	<rect
   style="fill:#461005;fill-opacity:1"
   x="30.705"
   y="123.518"
   width="99.704"
   height="16.637"
   id="rect12" />
	
	<path
   style="fill:#461005;fill-opacity:1"
   d="M348.12,257.341c-2.163,0-2.952-0.569-4.681-1.817c-2.35-1.696-5.568-4.019-11.493-4.019   c-5.924,0-9.142,2.322-11.491,4.019c-1.729,1.248-2.518,1.817-4.681,1.817c-2.161,0-2.949-0.569-4.677-1.816   c-2.35-1.696-5.568-4.02-11.492-4.02c-5.923,0-9.141,2.322-11.49,4.019c-1.729,1.248-2.518,1.817-4.681,1.817   s-2.952-0.569-4.681-1.817c-2.35-1.696-5.567-4.019-11.49-4.019v11.637c2.162,0,2.951,0.569,4.68,1.817   c2.35,1.696,5.568,4.018,11.491,4.018c5.923,0,9.142-2.322,11.491-4.018c1.729-1.248,2.518-1.817,4.68-1.817   c2.163,0,2.952,0.569,4.681,1.817c2.349,1.696,5.566,4.018,11.488,4.018c5.923,0,9.141-2.322,11.491-4.018   c1.729-1.248,2.518-1.817,4.681-1.817c2.164,0,2.954,0.569,4.683,1.818c2.35,1.695,5.568,4.018,11.491,4.018   c5.923,0,9.142-2.322,11.492-4.018c1.73-1.249,2.519-1.818,4.683-1.818v-11.637c-5.924,0-9.143,2.322-11.493,4.019   C351.073,256.772,350.283,257.341,348.12,257.341z"
   id="path16" />
</g>
<g
   id="g20">
</g>
<g
   id="g22">
</g>
<g
   id="g24">
</g>
<g
   id="g26">
</g>
<g
   id="g28">
</g>
<g
   id="g30">
</g>
<g
   id="g32">
</g>
<g
   id="g34">
</g>
<g
   id="g36">
</g>
<g
   id="g38">
</g>
<g
   id="g40">
</g>
<g
   id="g42">
</g>
<g
   id="g44">
</g>
<g
   id="g46">
</g>
<g
   id="g48">
</g>
</svg>
