<?xml version="1.0" encoding="UTF-8" standalone="no"?>
<!-- Created with Inkscape (http://www.inkscape.org/) -->

<svg
   xmlns:dc="http://purl.org/dc/elements/1.1/"
   xmlns:cc="http://creativecommons.org/ns#"
   xmlns:rdf="http://www.w3.org/1999/02/22-rdf-syntax-ns#"
   xmlns:svg="http://www.w3.org/2000/svg"
   xmlns="http://www.w3.org/2000/svg"
   xmlns:sodipodi="http://sodipodi.sourceforge.net/DTD/sodipodi-0.dtd"
   xmlns:inkscape="http://www.inkscape.org/namespaces/inkscape"
   width="14"
   height="14"
   viewBox="0 0 3.7041666 3.7041668"
   version="1.1"
   id="svg3664"
   inkscape:version="0.92.4 (f8dce91, 2019-08-02)"
   sodipodi:docname="plant_icon.svg">
  <defs
     id="defs3658" />
  <sodipodi:namedview
     id="base"
     pagecolor="#ffffff"
     bordercolor="#666666"
     borderopacity="1.0"
     inkscape:pageopacity="0.0"
     inkscape:pageshadow="2"
     inkscape:zoom="11.2"
     inkscape:cx="-9.9563108"
     inkscape:cy="1.5344389"
     inkscape:document-units="mm"
     inkscape:current-layer="layer1"
     showgrid="false"
     units="px"
     inkscape:window-width="1853"
     inkscape:window-height="1025"
     inkscape:window-x="67"
     inkscape:window-y="27"
     inkscape:window-maximized="1"
     inkscape:snap-global="false" />
  <metadata
     id="metadata3661">
    <rdf:RDF>
      <cc:Work
         rdf:about="">
        <dc:format>image/svg+xml</dc:format>
        <dc:type
           rdf:resource="http://purl.org/dc/dcmitype/StillImage" />
        <dc:title></dc:title>
      </cc:Work>
    </rdf:RDF>
  </metadata>
  <g
     inkscape:label="Layer 1"
     inkscape:groupmode="layer"
     id="layer1"
     transform="translate(0,-293.29581)">
    <rect
       style="fill:#009400;fill-opacity:1;fill-rule:nonzero;stroke:#004b00;stroke-width:0.42782122;stroke-linecap:round;stroke-linejoin:miter;stroke-miterlimit:4;stroke-dasharray:none;stroke-opacity:0.83701657;paint-order:markers stroke fill"
       id="rect4328"
       width="3.2763455"
       height="3.2763455"
       x="0.21391061"
       y="293.50974" />
    <g
       id="g4308"
       transform="matrix(0.67412028,0,0,0.65914099,-2.4011091,100.29781)"
       style="fill:#005700;fill-opacity:1">
      <path
         style="fill:#005700;fill-opacity:1;fill-rule:nonzero;stroke:none;stroke-width:0.48789266;stroke-linecap:round;stroke-linejoin:round;stroke-miterlimit:4;stroke-dasharray:none;stroke-opacity:1;paint-order:markers stroke fill"
         d="m 7.7048425,293.96654 c -0.2938828,0.0404 -0.8551167,0.11694 -1.1144166,0.45616 -0.1351826,0.17454 -0.2490652,0.37001 -0.2938123,0.63254 -0.042688,-0.18018 -0.1552373,-0.39169 -0.4355414,-0.62631 -0.5147604,-0.28694 -0.9122647,-0.19754 -1.2800903,-0.22046 0.028236,0.25869 0.081877,0.75314 0.453662,0.99994 0.2692501,0.18099 0.5873318,0.32858 1.1144162,0.33068 0.1873501,0.22581 0.2399603,0.57194 0.2310377,0.8202 -0.2803658,0.0379 -0.4686842,0.27648 -0.4685467,0.5189 9.2e-5,0.27193 0.3287634,0.49232 0.6471638,0.49234 0.3184005,-2e-5 0.6024176,-0.23002 0.6025098,-0.50195 -3.27e-4,-0.26125 -0.091546,-0.39947 -0.4154793,-0.5172 0.020779,-0.31869 -0.1234609,-0.61762 -0.2582184,-0.80324 0.2512521,0.01 0.6263686,-0.0224 1.0438754,-0.45278 0.2964106,-0.46632 0.1697389,-0.80674 0.1734401,-1.12882 z"
         id="path4274"
         inkscape:connector-curvature="0" />
    </g>
  </g>
</svg>
